<svg width="16" height="16" viewBox="0 0 16 16" fill="none" xmlns="http://www.w3.org/2000/svg">
<path d="M13.76 10.72C13.8453 10.4427 13.952 10.0587 14.08 9.568C14.208 9.06667 14.272 8.48 14.272 7.808C14.272 6.98667 14.128 6.208 13.84 5.472C13.552 4.736 13.136 4.09067 12.592 3.536C12.0587 2.97067 11.408 2.528 10.64 2.208C9.872 1.87733 9.008 1.712 8.048 1.712C7.184 1.712 6.368 1.872 5.6 2.192C4.84267 2.50133 4.18133 2.93867 3.616 3.504C3.06133 4.06933 2.61867 4.74133 2.288 5.52C1.968 6.29867 1.808 7.152 1.808 8.08C1.808 8.99733 1.97333 9.84 2.304 10.608C2.63467 11.376 3.088 12.032 3.664 12.576C4.25067 13.1307 4.944 13.5573 5.744 13.856C6.544 14.1653 7.41333 14.32 8.352 14.32C9.03467 14.32 9.64267 14.2667 10.176 14.16C10.7093 14.0533 11.1093 13.9573 11.376 13.872L11.68 14.752C11.552 14.8053 11.376 14.8587 11.152 14.912C10.928 14.976 10.6613 15.0347 10.352 15.088C10.0533 15.152 9.72267 15.2 9.36 15.232C9.008 15.2747 8.64 15.296 8.256 15.296C7.18933 15.296 6.19733 15.1147 5.28 14.752C4.37333 14.3893 3.584 13.888 2.912 13.248C2.24 12.608 1.712 11.8507 1.328 10.976C0.944 10.0907 0.752 9.12533 0.752 8.08C0.752 7.024 0.938667 6.048 1.312 5.152C1.696 4.256 2.21867 3.48267 2.88 2.832C3.54133 2.17067 4.31467 1.65867 5.2 1.296C6.08533 0.922666 7.03467 0.735999 8.048 0.735999C9.14667 0.735999 10.144 0.927999 11.04 1.312C11.9467 1.68533 12.72 2.19733 13.36 2.848C14 3.488 14.4907 4.24 14.832 5.104C15.184 5.95733 15.36 6.864 15.36 7.824C15.36 8.272 15.328 8.69333 15.264 9.088C15.2107 9.48267 15.1413 9.84533 15.056 10.176C14.9813 10.496 14.9013 10.7733 14.816 11.008C14.7307 11.2427 14.6613 11.4187 14.608 11.536C14.3733 11.568 13.76 11.6213 12.768 11.696C11.7867 11.76 10.416 11.792 8.656 11.792C7.33333 11.792 6.34133 11.6213 5.68 11.28C5.01867 10.928 4.688 10.3307 4.688 9.488C4.688 8.752 4.944 8.176 5.456 7.76C5.968 7.33333 6.80533 7.12 7.968 7.12C8.20267 7.12 8.43733 7.13067 8.672 7.152C8.90667 7.16267 9.12 7.17867 9.312 7.2C9.51467 7.21067 9.68533 7.22667 9.824 7.248C9.96267 7.25867 10.0533 7.26933 10.096 7.28V7.024C10.096 6.64 10.032 6.32533 9.904 6.08C9.776 5.83467 9.59467 5.64267 9.36 5.504C9.136 5.35467 8.864 5.25333 8.544 5.2C8.23467 5.136 7.89867 5.104 7.536 5.104C6.78933 5.104 6.11733 5.25333 5.52 5.552C5.46667 5.49867 5.424 5.424 5.392 5.328C5.37067 5.22133 5.36 5.12533 5.36 5.04C5.36 4.816 5.53067 4.624 5.872 4.464C6.21333 4.304 6.79467 4.224 7.616 4.224C8.256 4.224 8.79467 4.29867 9.232 4.448C9.68 4.58667 10.0427 4.784 10.32 5.04C10.5973 5.296 10.7947 5.59467 10.912 5.936C11.04 6.26667 11.104 6.624 11.104 7.008V10.864C11.1787 10.864 11.3333 10.8587 11.568 10.848C11.8133 10.8373 12.0747 10.8267 12.352 10.816C12.6293 10.8053 12.9013 10.7947 13.168 10.784C13.4347 10.7627 13.632 10.7413 13.76 10.72ZM10.096 8.144C9.904 8.112 9.632 8.07467 9.28 8.032C8.93867 7.98933 8.53333 7.968 8.064 7.968C7.264 7.968 6.672 8.08 6.288 8.304C5.91467 8.528 5.728 8.92267 5.728 9.488C5.728 10.0533 5.97333 10.4267 6.464 10.608C6.95467 10.7893 7.64267 10.88 8.528 10.88C8.79467 10.88 9.06133 10.88 9.328 10.88C9.59467 10.88 9.85067 10.8747 10.096 10.864V8.144Z" fill="#C4C4C4"/>
</svg>
