<svg width="62" height="16" viewBox="0 0 62 16" fill="none" xmlns="http://www.w3.org/2000/svg">
<path fill-rule="evenodd" clip-rule="evenodd" d="M13.2796 0.226997H11.7486H6.39397V0.22168L4.84991 0.226997C4.00397 0.226997 3.31823 0.912751 3.31823 1.75863L3.31851 1.77971L3.31827 1.77994V9.49797C3.31827 10.4201 2.6611 11.1784 1.79702 11.3578L1.79022 11.3592L1.79028 11.3756C1.23573 11.6059 0.845703 12.1527 0.845703 12.7906L0.845765 12.795V14.172L0.845703 14.1764L0.845765 14.1808V14.2015H0.84606C0.859469 15.0358 1.53984 15.7081 2.3774 15.7081C3.14001 15.7081 3.77234 15.1507 3.88949 14.4211H11.7486H13.3088C13.426 15.1507 14.0583 15.7081 14.821 15.7081C15.6669 15.7081 16.3526 15.0223 16.3526 14.1764V12.8894V12.7906H16.3493C16.2983 11.9908 15.6337 11.3578 14.821 11.3578L14.8119 11.358V11.3578V3.29044V1.75867C14.8119 0.912793 14.1262 0.227039 13.2803 0.227039H13.2796V0.226997ZM23.0492 12.8892V12.8892C23.0492 13.7352 22.3635 14.4209 21.5176 14.4209C20.6716 14.4209 19.9859 13.7352 19.9859 12.8892L19.9859 12.8876V1.76653L19.986 1.76651L19.9859 1.75878C19.9859 0.912836 20.6716 0.227123 21.5176 0.227123V0.227102H22.1342H23.0492H27.839C30.6499 0.227102 32.9492 2.42026 32.9492 5.23152C32.9492 8.04278 30.6498 10.1181 27.839 10.1181H23.0492V12.8892V12.8892ZM23.0492 3.29031C23.0492 4.54513 23.0492 5.79994 23.0492 7.05476H27.9259C28.9958 7.05476 29.8708 6.26508 29.8708 5.19512C29.8708 4.12518 28.9944 3.29041 27.9259 3.29041L23.0492 3.29031ZM45.9941 0.768703L45.9934 0.769627C45.9354 0.8381 45.8834 0.911658 45.838 0.989651L42.1118 6.26489L38.3365 0.915315L38.3364 0.915379C38.0623 0.500698 37.5921 0.227144 37.0578 0.227144C36.2119 0.227144 35.5261 0.912857 35.5261 1.7588C35.5261 2.11693 35.6491 2.4463 35.855 2.70712L35.8549 2.70714L40.2377 8.92283L38.0259 12.0597L38.0285 12.0616C37.8749 12.3003 37.7858 12.5844 37.7858 12.8893C37.7858 13.7352 38.4715 14.4209 39.3175 14.4209C39.8065 14.4209 40.242 14.1917 40.5224 13.8349C40.5549 13.7935 40.5853 13.7503 40.6135 13.7056L48.4475 2.59541L48.4464 2.59459C48.6032 2.35425 48.6944 2.06718 48.6944 1.75878C48.6944 0.912836 48.0087 0.227123 47.1628 0.227123C46.6943 0.227123 46.2751 0.437458 45.9941 0.768766L45.9941 0.768703ZM60.3983 0.226997H54.8649H53.3332H53.3228L53.3228 0.227123C52.4817 0.232777 51.8017 0.916198 51.8016 1.75859L51.8016 1.75863L51.8016 1.763L51.8016 3.29033L51.7995 12.9677H51.8035C51.8443 13.7773 52.5136 14.421 53.3332 14.421C54.1791 14.421 54.8649 13.7353 54.8649 12.8893C54.8649 12.8632 54.8642 12.8372 54.863 12.8114L54.8649 3.29031H60.3706L60.3794 3.29041L60.3882 3.29031H60.3983V3.2902C61.2355 3.28005 61.9111 2.5984 61.9111 1.75874C61.9111 0.919141 61.2355 0.237463 60.3983 0.227333V0.226976V0.226997ZM6.04665 11.3578C6.27241 10.8009 6.3968 10.1875 6.3968 9.53448L6.39628 9.49797H6.39397V3.29039H11.7486V11.3578H6.04665Z" fill="#2B2B2A"/>
</svg>
